<svg width="152" height="40" viewBox="0 0 152 40" fill="none" xmlns="http://www.w3.org/2000/svg">
<path d="M17.2001 1.57132H17.1947C15.7592 1.57332 14.5923 2.71932 14.5943 4.12599C14.597 5.52665 15.766 6.66799 17.1994 6.66799C18.6376 6.66532 19.8087 5.51932 19.8066 4.11465C19.8039 2.71265 18.6342 1.57132 17.2001 1.57132Z" fill="#00B9BF"/>
<path d="M17.2001 28.6433H17.1947C15.7592 28.6453 14.5923 29.7907 14.5943 31.1973C14.597 32.5987 15.766 33.74 17.1994 33.74C18.6376 33.7373 19.8087 32.592 19.8066 31.186C19.8039 29.7847 18.6342 28.6433 17.2001 28.6433Z" fill="#00B9BF"/>
<path d="M27.0336 4.76202H27.0254C25.093 4.76536 23.5219 6.30736 23.5253 8.20069C23.5287 10.09 25.1019 11.626 27.0322 11.626C28.9708 11.6227 30.546 10.0807 30.5432 8.18736C30.5405 6.29869 28.9646 4.76202 27.0336 4.76202Z" fill="#00B9BF"/>
<path d="M27.0336 23.6913H27.0254C25.093 23.694 23.5219 25.2373 23.5253 27.1307C23.5287 29.0193 25.1019 30.5553 27.0322 30.5553C28.9708 30.5527 30.546 29.0093 30.5432 27.1167C30.5405 25.228 28.9646 23.6913 27.0336 23.6913Z" fill="#00B9BF"/>
<path d="M4.86426 17.5967C4.86426 18.428 4.17583 19.102 3.32518 19.102C2.47452 19.102 1.78473 18.428 1.78473 17.5967C1.78473 16.7647 2.47452 16.0907 3.32518 16.0907C4.17583 16.0907 4.86426 16.7647 4.86426 17.5967Z" fill="#00B9BF"/>
<path d="M9.14951 8.19468C9.14951 9.21001 8.30771 10.034 7.26893 10.034C6.22947 10.034 5.38699 9.21001 5.38699 8.19468C5.38699 7.17868 6.22947 6.35535 7.26893 6.35535C8.30771 6.35535 9.14951 7.17868 9.14951 8.19468Z" fill="#00B9BF"/>
<path d="M9.14951 27.1233C9.14951 28.1387 8.30771 28.9627 7.26893 28.9627C6.22947 28.9627 5.38699 28.1387 5.38699 27.1233C5.38699 26.108 6.22947 25.284 7.26893 25.284C8.30771 25.284 9.14951 26.108 9.14951 27.1233Z" fill="#00B9BF"/>
<path d="M31.0192 13.084H31.0089C28.4686 13.0887 26.404 15.1167 26.4067 17.6053C26.4121 20.0873 28.4801 22.108 31.0178 22.108C33.5664 22.1027 35.6378 20.0747 35.6344 17.586C35.6296 15.1033 33.5589 13.084 31.0192 13.084Z" fill="#00B9BF"/>
<path d="M104.98 8.93932C101.429 8.93932 96.0604 10.6786 96.0604 17.46C96.0604 24.2426 101.913 25.9226 104.98 25.9226C108.048 25.9226 113.903 24.2426 113.903 17.46C113.903 10.6786 108.531 8.93932 104.98 8.93932ZM109.41 17.4306C109.41 21.8293 106.846 22.9186 104.985 22.9186C103.123 22.9186 100.556 21.8293 100.555 17.4306C100.555 13.032 103.273 11.9426 104.98 11.9426C106.688 11.9426 109.41 13.032 109.41 17.4306Z" fill="#00B9BF"/>
<path d="M89.0328 16.7547L95.945 9.11732H90.9236L84.5866 16.1853V4.18999C84.5866 3.10799 83.9084 1.55065 81.2167 1.58265C80.9216 1.58599 80.5971 1.60465 80.2597 1.65399V25.708H84.5866V17.298L91.4225 25.7107H96.3512L89.0328 16.7547Z" fill="#00B9BF"/>
<path d="M125.695 8.95532C123.089 8.95532 121.517 9.85999 120.83 10.3787V10.372C120.738 10.4313 120.648 10.4907 120.557 10.5527C120.143 9.74665 119.235 8.93999 117.361 8.93999C117.057 8.93999 116.723 8.96199 116.376 9.01065V25.7253H120.83V13.2053C122.012 12.0913 125.298 11.504 126.794 13.0087C127.639 13.8567 127.807 15.054 127.807 16.1747V25.7253H132.261V15.3533C132.261 11.0987 128.905 8.95532 125.695 8.95532Z" fill="#00B9BF"/>
<path d="M53.0148 8.92265C48.7424 8.92265 45.6997 10.896 45.6997 10.896L47.0411 13.2527C49.0546 12.172 52.0414 11.6187 53.8702 12.0227C55.213 12.3193 55.7801 13.216 56.0671 14.0533C56.2163 14.4893 56.1829 15.8687 56.1829 15.8687V15.4233C53.8102 14.9007 44.862 13.7607 44.862 20.6873C44.862 23.2673 46.5415 25.3593 50.1704 25.8167C52.3502 26.0907 54.3692 25.648 56.1829 24.4733C56.2736 24.4147 56.3649 24.3553 56.4549 24.2927C56.8686 25.0987 57.7765 25.906 59.651 25.906C59.9557 25.906 60.289 25.8833 60.6366 25.834V14.602C60.6366 10.0173 55.8551 8.92265 53.0148 8.92265ZM56.1829 17.9427V21.6393C54.4271 22.714 52.9255 22.902 52.0523 22.902C51.0354 22.902 49.268 22.5153 49.1616 20.428C48.9749 16.762 53.7802 17.312 56.1829 17.8193V17.9427Z" fill="#00B9BF"/>
<path d="M69.1184 15.066C67.4083 14.4987 67.2917 13.8287 67.4526 13.144C67.9161 11.1653 72.7112 11.83 75.3729 13.1453L76.6864 10.772C75.2584 9.85799 72.7174 8.92265 69.9289 8.92265C67.505 8.92265 65.2905 9.51399 64.0595 11.3253C62.8837 13.0547 63.0575 15.674 65.058 17.0833C66.5842 18.1587 69.4299 18.958 71.438 19.3773C72.6751 19.6353 73.7111 20.1553 73.3949 21.5007C73.0432 22.9953 69.5356 24.1347 64.7936 20.5587L63.1052 22.6993C63.1052 22.6993 65.7315 25.662 70.07 25.9047C74.5277 26.1547 77.8186 23.7767 77.5963 20.51C77.3271 16.5407 73.2354 16.4313 69.1184 15.066Z" fill="#00B9BF"/>
<path d="M142.752 8.92265C138.481 8.92265 135.437 10.896 135.437 10.896L136.779 13.2527C138.792 12.172 141.78 11.6187 143.608 12.0227C144.951 12.3193 145.518 13.216 145.805 14.0533C145.954 14.4893 145.92 15.8687 145.92 15.8687V15.4233C143.548 14.9007 134.6 13.7607 134.6 20.6873C134.6 23.2673 136.279 25.3593 139.908 25.8167C142.088 26.0907 144.107 25.648 145.92 24.4733C146.012 24.4147 146.102 24.3553 146.193 24.2927C146.606 25.0987 147.514 25.906 149.389 25.906C149.693 25.906 150.027 25.8833 150.374 25.834V14.602C150.374 10.0173 145.593 8.92265 142.752 8.92265ZM145.92 17.9427V21.6393C144.165 22.714 142.664 22.902 141.791 22.902C140.774 22.902 139.006 22.5153 138.899 20.428C138.713 16.762 143.518 17.312 145.92 17.8193V17.9427Z" fill="#00B9BF"/>
<path d="M68.1714 37.1387C67.6922 36.66 67.4523 36.0787 67.4523 35.3747C67.4523 34.672 67.6922 34.0907 68.1714 33.6213C68.6512 33.1427 69.2551 32.908 69.9749 32.908C70.9237 32.908 71.7199 33.3867 72.0941 34.1373L71.394 34.5313C71.1541 34.034 70.617 33.706 69.9749 33.706C69.4951 33.706 69.0922 33.8653 68.7664 34.184C68.4495 34.5033 68.2866 34.8973 68.2866 35.3747C68.2866 35.8447 68.4495 36.238 68.7664 36.5573C69.0922 36.876 69.4951 37.036 69.9749 37.036C70.617 37.036 71.1541 36.7167 71.4227 36.2193L72.1322 36.6233C71.7199 37.364 70.9046 37.8427 69.9749 37.8427C69.2551 37.8427 68.6512 37.608 68.1714 37.1387Z" fill="#00B9BF"/>
<path d="M77.311 33.0307V37.72H76.4767V33.8087H73.9929V37.72H73.1586V33.0307H77.311Z" fill="#00B9BF"/>
<path d="M82.2496 33.0307H82.921V37.72H82.0962V34.428L79.4393 37.72H78.7686V33.0307H79.5933V36.3227L82.2496 33.0307Z" fill="#00B9BF"/>
<path d="M87.946 33.0307V33.8187H86.3156V37.72H85.4813V33.8187H83.8413V33.0307H87.946Z" fill="#00B9BF"/>
<path d="M89.2604 35.7507C89.4233 36.5853 90.0851 37.0733 90.9958 37.0733C91.629 37.0733 92.0891 36.848 92.3774 36.388L93.087 36.7827C92.6167 37.486 91.9167 37.8427 90.9774 37.8427C90.2194 37.8427 89.5957 37.608 89.1166 37.1487C88.6469 36.6793 88.407 36.088 88.407 35.3753C88.407 34.672 88.6367 34.0807 89.107 33.612C89.5767 33.1427 90.1813 32.9087 90.9194 32.9087C91.6195 32.9087 92.1947 33.1527 92.6364 33.64C93.087 34.1187 93.3071 34.7 93.3071 35.3853C93.3071 35.5067 93.2976 35.6287 93.2785 35.7507H89.2604ZM89.2604 35.038H92.4633C92.3195 34.1467 91.6869 33.678 90.9194 33.678C90.0272 33.678 89.4042 34.2127 89.2604 35.038Z" fill="#00B9BF"/>
<path d="M95.3204 36.754L94.6967 39.0333H93.9776L94.3613 36.754H95.3204Z" fill="#00B9BF"/>
<path d="M102.302 33.0307H103.137V37.72H102.302V36.032C101.919 36.1913 101.487 36.276 101.008 36.276C99.7797 36.276 99.0797 35.704 99.0797 34.5873V33.0307H99.9146V34.5407C99.9146 35.244 100.307 35.5167 101.065 35.5167C101.516 35.5167 101.928 35.432 102.302 35.272V33.0307Z" fill="#00B9BF"/>
<path d="M108.161 33.0307V33.8187H106.531V37.72H105.697V33.8187H104.057V33.0307H108.161Z" fill="#00B9BF"/>
<path d="M111.143 37.8427C110.443 37.8427 109.839 37.608 109.35 37.13C108.861 36.6513 108.621 36.07 108.621 35.3753C108.621 34.6813 108.861 34.1 109.35 33.6213C109.839 33.1427 110.443 32.9087 111.143 32.9087C111.843 32.9087 112.448 33.1427 112.937 33.6213C113.426 34.1 113.675 34.6813 113.675 35.3753C113.675 36.07 113.426 36.6513 112.937 37.13C112.448 37.608 111.844 37.8427 111.143 37.8427ZM112.352 36.5667C112.679 36.2473 112.841 35.854 112.841 35.3753C112.841 34.8973 112.679 34.5033 112.352 34.1847C112.026 33.8653 111.624 33.706 111.144 33.706C110.674 33.706 110.271 33.8653 109.945 34.1847C109.619 34.5033 109.456 34.8973 109.456 35.3753C109.456 35.854 109.619 36.2473 109.945 36.5667C110.271 36.886 110.674 37.0453 111.144 37.0453C111.624 37.0453 112.026 36.886 112.352 36.5667Z" fill="#00B9BF"/>
<path d="M115.277 37.158C114.817 36.6987 114.586 36.1167 114.586 35.394C114.586 34.5974 114.702 33.978 114.942 33.5467C115.181 33.1154 115.68 32.7214 116.418 32.374C116.552 32.3087 116.734 32.2334 116.965 32.13L117.483 31.9054C117.847 31.7267 118.26 31.4267 118.298 31.0047L118.969 31.38C118.931 31.5767 118.873 31.746 118.748 31.9054C118.634 32.0554 118.585 32.1487 118.365 32.2894C118.164 32.412 118.135 32.4487 117.857 32.5714C117.723 32.6367 117.626 32.674 117.579 32.702L117.262 32.834L116.955 32.9554C116.083 33.3214 115.747 33.6494 115.565 34.222C115.977 33.7254 116.639 33.49 117.252 33.49C117.857 33.49 118.365 33.6874 118.778 34.0907C119.2 34.494 119.41 35.01 119.41 35.6387C119.41 36.2767 119.19 36.8014 118.739 37.224C118.288 37.6367 117.723 37.8427 117.032 37.8427C116.322 37.8427 115.737 37.6174 115.277 37.158ZM117.061 34.2127C116.648 34.2127 116.284 34.344 115.948 34.5974C115.622 34.8507 115.459 35.1787 115.459 35.5914C115.459 36.0134 115.612 36.37 115.91 36.642C116.207 36.914 116.581 37.0547 117.032 37.0547C117.483 37.0547 117.847 36.9234 118.135 36.6514C118.432 36.3794 118.576 36.0414 118.576 35.6387C118.576 34.804 117.971 34.2127 117.061 34.2127Z" fill="#00B9BF"/>
<path d="M122.507 34.7193C122.987 34.7193 123.38 34.8593 123.696 35.1407C124.013 35.4133 124.176 35.7787 124.176 36.22C124.176 36.6607 124.013 37.026 123.696 37.3073C123.38 37.58 122.987 37.7207 122.507 37.7207H120.484V33.0307H121.318V34.7193H122.507ZM122.507 36.9607C122.977 36.9607 123.352 36.67 123.352 36.22C123.352 35.77 122.977 35.47 122.507 35.47H121.318V36.9607H122.507ZM124.799 33.0307H125.634V37.72H124.799V33.0307Z" fill="#00B9BF"/>
<path d="M135.588 37.7207H134.61L132.817 35.498V37.7207H131.992V35.498L130.199 37.7207H129.23L131.234 35.3007L129.325 33.0313H130.294L131.992 35.104V33.0313H132.817V35.104L134.514 33.0313H135.492L133.574 35.3007L135.588 37.7207Z" fill="#00B9BF"/>
<path d="M140.057 33.0307H140.728V37.72H139.903V34.428L137.246 37.72H136.576V33.0307H137.4V36.3227L140.057 33.0307Z" fill="#00B9BF"/>
<path d="M145.753 33.0307V33.8187H144.123V37.72H143.288V33.8187H141.648V33.0307H145.753Z" fill="#00B9BF"/>
<path d="M148.697 34.7193C149.177 34.7193 149.569 34.86 149.886 35.1413C150.202 35.4133 150.365 35.7793 150.365 36.22C150.365 36.6607 150.202 37.0267 149.886 37.308C149.569 37.58 149.177 37.7207 148.697 37.7207H146.673V33.0307H147.507V34.7193H148.697ZM148.697 36.9607C149.166 36.9607 149.541 36.67 149.541 36.22C149.541 35.77 149.166 35.47 148.697 35.47H147.507V36.9607H148.697Z" fill="#00B9BF"/>
</svg>
